<svg width="70" height="43" viewBox="0 0 70 43" fill="none" xmlns="http://www.w3.org/2000/svg">
<rect x="0.5" width="69" height="43" rx="21.5" fill="#8B48BF"/>
<path d="M30.444 29.224C28.9933 29.224 27.9107 28.7493 27.196 27.8C26.492 26.8507 26.14 25.5973 26.14 24.04V22.728C26.14 21.1707 26.492 19.9227 27.196 18.984C27.9107 18.0453 28.9933 17.576 30.444 17.576C31.9053 17.576 32.988 18.0507 33.692 19C34.4067 19.9387 34.764 21.1813 34.764 22.728V24.04C34.764 25.5973 34.4067 26.8507 33.692 27.8C32.9773 28.7493 31.8947 29.224 30.444 29.224ZM30.444 27.304C31.084 27.304 31.548 27.0373 31.836 26.504C32.1347 25.96 32.284 25.1653 32.284 24.12V22.632C32.284 21.5973 32.1347 20.8187 31.836 20.296C31.548 19.7627 31.084 19.496 30.444 19.496C29.8147 19.496 29.3507 19.7627 29.052 20.296C28.764 20.8187 28.62 21.5973 28.62 22.632V24.12C28.62 25.1653 28.764 25.96 29.052 26.504C29.3507 27.0373 29.8147 27.304 30.444 27.304ZM43.3415 27.064V29H36.6535V27.064H39.0535V20.44H38.9895L36.6375 22.584V19.944L39.0055 17.8H41.1815V27.064H43.3415Z" fill="white"/>
</svg>
