<svg width="71" height="43" viewBox="0 0 71 43" fill="none" xmlns="http://www.w3.org/2000/svg">
<rect x="0.5" width="70" height="43" rx="21.5" fill="#8B48BF"/>
<path d="M30.444 29.224C28.9933 29.224 27.9107 28.7493 27.196 27.8C26.492 26.8507 26.14 25.5973 26.14 24.04V22.728C26.14 21.1707 26.492 19.9227 27.196 18.984C27.9107 18.0453 28.9933 17.576 30.444 17.576C31.9053 17.576 32.988 18.0507 33.692 19C34.4067 19.9387 34.764 21.1813 34.764 22.728V24.04C34.764 25.5973 34.4067 26.8507 33.692 27.8C32.9773 28.7493 31.8947 29.224 30.444 29.224ZM30.444 27.304C31.084 27.304 31.548 27.0373 31.836 26.504C32.1347 25.96 32.284 25.1653 32.284 24.12V22.632C32.284 21.5973 32.1347 20.8187 31.836 20.296C31.548 19.7627 31.084 19.496 30.444 19.496C29.8147 19.496 29.3507 19.7627 29.052 20.296C28.764 20.8187 28.62 21.5973 28.62 22.632V24.12C28.62 25.1653 28.764 25.96 29.052 26.504C29.3507 27.0373 29.8147 27.304 30.444 27.304ZM36.3815 27.112L38.1575 25.56L38.9095 24.936C39.6135 24.36 40.1628 23.8907 40.5575 23.528C40.9522 23.1653 41.2775 22.7813 41.5335 22.376C41.7895 21.96 41.9175 21.5387 41.9175 21.112C41.9175 20.6533 41.7788 20.264 41.5015 19.944C41.2242 19.624 40.8028 19.464 40.2375 19.464C39.5442 19.464 39.0802 19.6667 38.8455 20.072C38.6215 20.4667 38.5095 20.888 38.5095 21.336V21.528H36.3335C36.3335 20.728 36.4882 20.0293 36.7975 19.432C37.1175 18.8347 37.5655 18.376 38.1415 18.056C38.7282 17.7253 39.4162 17.56 40.2055 17.56C41.0055 17.56 41.6882 17.7147 42.2535 18.024C42.8295 18.3227 43.2615 18.7333 43.5495 19.256C43.8482 19.7787 43.9975 20.3547 43.9975 20.984C43.9975 21.6133 43.8642 22.1893 43.5975 22.712C43.3308 23.224 43.0108 23.672 42.6375 24.056C42.2642 24.4293 41.7842 24.8613 41.1975 25.352L40.9415 25.576L39.2935 26.984V27.064H44.0935V29H36.3975L36.3815 27.112Z" fill="white"/>
</svg>
